<svg version="1.1" id="transferwise-logo-flag" xmlns="http://www.w3.org/2000/svg" xmlns:xlink="http://www.w3.org/1999/xlink" x="0px" y="0px"
	 viewBox="0 0 160 27" enable-background="new 0 0 160 27" xml:space="preserve">
<g>
	<polygon fill="#00C6FF" points="2.5,0 6,5.9 0,11.8 10.4,11.8 11.5,9.4 5.6,9.4 9.2,5.8 7,2.4 16.8,2.4 8.3,22.6 11.2,22.6 20.8,0
			"/>
	<rect x="132" y="13.8" fill="#232F49" width="2.4" height="12.9"/>
	<rect x="131.9" y="9.5" fill="#232F49" width="2.7" height="2.6"/>
	<polygon fill="#232F49" points="127.8,9.5 124.8,22.9 124.7,22.9 121.6,13.8 119.4,13.8 115.8,22.9 115.7,22.9 113.3,9.5
		110.7,9.5 114,26.7 116.4,26.7 120.3,17.2 120.4,17.2 123.8,26.7 126.2,26.7 130.4,9.5 	"/>
	<path fill="#232F49" d="M94,24.9c-2.4,0-4-1.9-4-4.5c0-2.5,1.4-4.7,3.7-4.7c2.6,0,3.3,2.2,3.4,3.5h-4.2l-0.8,2h7.5
		c0-0.5,0-0.7,0-0.9c0-3.7-1.9-6.7-5.9-6.7c-3.5,0-6.2,2.8-6.2,6.7c0,4,2.6,6.7,6.3,6.7c2.2,0,4.2-0.8,5.3-2.2l-1.5-1.4
		C96.6,24.3,95.4,24.9,94,24.9"/>
	<path fill="#232F49" d="M84.4,13.6c0-1.6,0.8-2.5,2.3-2.5c0.6,0,1.4,0.1,2.1,0.4l0.8-1.8c-1-0.5-2.1-0.7-3-0.7
		c-2.5,0-4.6,1.2-4.6,4.5V14h-1.6v2h1.6v10.7h2.4V16h2.5l0.8-2h-3.3V13.6z"/>
	<path fill="#232F49" d="M62.4,13.6c-1.6,0-3.1,0.6-3.8,1.9h-0.1v-1.6h-2.4v12.9h2.4v-7c0-2.5,1.3-4.1,3.3-4.1c1.9,0,3.1,1,3.1,3.4
		v7.7h2.4v-8.1C67.4,15.4,65.4,13.6,62.4,13.6"/>
	<path fill="#232F49" d="M50.9,21.8c0,1.9-1.6,3.2-3.8,3.2c-1.3,0-2.5-0.6-2.5-2.1c0-1.4,1.2-2.4,3-2.4c1.6,0,2.7,0.3,3.3,0.7V21.8z
		 M47.4,13.6c-1.4,0-2.8,0.2-3.8,0.6l0.4,2c1.2-0.4,2.1-0.5,3.1-0.5c2.1,0,3.8,0.9,3.8,3.1v0.4c-0.7-0.3-1.7-0.6-3.2-0.6
		c-3.3,0-5.5,1.7-5.5,4.4c0,2.8,2.1,4.1,4.5,4.1c2,0,3.4-0.8,4.1-1.7h0.1v1.5h2.4v-8.1C53.2,15.1,50.9,13.6,47.4,13.6"/>
	<polygon fill="#232F49" points="20.8,9.5 20.8,11.8 26.2,11.8 26.2,26.7 28.8,26.7 28.8,11.8 34.3,11.8 34.3,9.5 	"/>
	<path fill="#232F49" d="M42.3,14.1c-0.8-0.3-1.6-0.4-2.1-0.4c-1.4,0-2.7,0.5-3.4,1.5h-0.1v-1.4h-2.4v12.9h2.4v-7.1
		c0-2.7,1.3-3.8,3.3-3.8c0.7,0,1.1,0.1,1.7,0.2L42.3,14.1z"/>
	<path fill="#232F49" d="M110,14.1c-0.8-0.3-1.6-0.4-2.1-0.4c-1.4,0-2.8,0.5-3.5,1.5h-0.1v-1.4h-2.4v12.9h2.4v-7.1
		c0-2.7,1.5-3.8,3.4-3.8c0.7,0,1.1,0.1,1.7,0.2L110,14.1z"/>
	<path fill="#232F49" d="M154.4,24.9c-2.4,0-4-1.9-4-4.5c0-2.5,1.4-4.7,3.7-4.7c2.6,0,3.3,2.2,3.4,3.5h-4.2l-0.8,2h7.5
		c0-0.5,0-0.7,0-0.9c0-3.7-1.9-6.7-5.9-6.7c-3.5,0-6.2,2.8-6.2,6.7c0,4,2.6,6.7,6.3,6.7c2.2,0,4.2-0.8,5.3-2.2l-1.5-1.4
		C157,24.3,155.8,24.9,154.4,24.9"/>
	<path fill="#232F49" d="M74.8,19.3c-1.9-0.3-3-0.6-3-1.9c0-1.1,1.1-1.8,2.5-1.8c1.1,0,2.5,0.4,3.4,1.1l1.2-1.7
		c-1.1-0.9-2.9-1.4-4.5-1.4c-2.8,0-4.9,1.7-4.9,4c0,2.6,1.7,3.4,4.5,3.9c1.6,0.3,3,0.4,3,1.8c0,1.1-1.1,1.7-2.6,1.7
		c-1.4,0-2.7-0.4-4-1.4l-1.1,1.9c0.9,0.8,2.8,1.5,5,1.5c3,0,5.1-1.7,5.1-4C79.2,20.2,77,19.6,74.8,19.3"/>
	<path fill="#232F49" d="M142.2,19.3c-1.9-0.3-3-0.6-3-1.9c0-1.1,1.1-1.8,2.5-1.8c1.1,0,2.5,0.4,3.4,1.1l1.2-1.7
		c-1.1-0.9-2.9-1.4-4.5-1.4c-2.8,0-4.9,1.7-4.9,4c0,2.6,1.7,3.4,4.5,3.9c1.6,0.3,3,0.4,3,1.8c0,1.1-1.1,1.7-2.6,1.7
		c-1.4,0-2.7-0.4-4-1.4l-1.1,1.9c0.9,0.8,2.8,1.5,5,1.5c3,0,5.1-1.7,5.1-4C146.6,20.2,144.4,19.6,142.2,19.3"/>
</g>
</svg>