<?xml version="1.0" encoding="utf-8"?>
<!DOCTYPE svg PUBLIC "-//W3C//DTD SVG 1.1//EN" "http://www.w3.org/Graphics/SVG/1.1/DTD/svg11.dtd">
<svg version="1.1" id="transferwise-logo" xmlns="http://www.w3.org/2000/svg" xmlns:xlink="http://www.w3.org/1999/xlink" x="0px" y="0px"
	 viewBox="0 0 160 20" enable-background="new 0 0 160 20" xml:space="preserve">
<g>
	<g>
		<path fill="#232F49" d="M127.8,19.7h2.8V5.3h-2.8V19.7z M127.7,3.4h3.1V0.5h-3.1V3.4z M119.6,15.4h-0.1l-3.6-10.1h-2.5l-4.1,10.1
			h-0.1l-2.8-14.9h-3l3.8,19.2h2.8l4.5-10.6h0.1l3.9,10.6h2.8l4.8-19.2h-2.9L119.6,15.4z M83.8,5.1c-4,0-7.1,3.2-7.1,7.5
			c0,4.5,3,7.4,7.2,7.4c2.5,0,4.8-0.9,6.1-2.5l-1.7-1.6c-1.1,1.1-2.5,1.7-4.2,1.7c-2.7,0-4.6-2.1-4.6-5.1c0-2.8,1.6-5.2,4.2-5.2
			c3,0,3.8,2.4,3.9,3.9h-4.8l-1,2.2h8.6c0-0.6,0-0.7,0-1C90.6,8.3,88.4,5.1,83.8,5.1z M73.1,5.5V5.1c0-1.8,0.9-2.8,2.6-2.8
			c0.6,0,1.7,0.2,2.5,0.4l0.9-2C77.9,0.2,76.6,0,75.6,0c-2.8,0-5.3,1.4-5.3,5.1v0.4h-1.9v2.3h1.9v11.9h2.8V7.8h2.8l1-2.3H73.1z
			 M47.9,5.1c-1.9,0-3.6,0.7-4.4,2.1h-0.1V5.3h-2.7v14.4h2.8v-7.8c0-2.8,1.5-4.5,3.8-4.5c2.2,0,3.5,1.1,3.5,3.8v8.5h2.8v-9
			C53.5,7,51.3,5.1,47.9,5.1z M30.6,5.1c-1.7,0-3.2,0.2-4.4,0.7l0.5,2.2c1.4-0.4,2.5-0.6,3.6-0.6c2.4,0,4.3,1.1,4.3,3.4v0.4
			c-0.8-0.3-1.9-0.6-3.7-0.6c-3.8,0-6.3,1.9-6.3,4.9c0,3.2,2.5,4.6,5.2,4.6c2.3,0,3.9-0.9,4.7-1.9h0.1v1.7h2.7v-9
			C37.3,6.8,34.7,5.1,30.6,5.1z M34.6,14.2c0,2.1-1.8,3.5-4.4,3.5c-1.5,0-2.8-0.7-2.8-2.4c0-1.6,1.4-2.6,3.4-2.6
			c1.9,0,3.1,0.3,3.8,0.8V14.2z M0,3.1h6.3v16.6h3V3.1h6.3V0.5H0V3.1z M22.3,5.2c-1.6,0-3.1,0.6-3.9,1.7h-0.1V5.3h-2.7v14.4h2.8
			v-7.9c0-3,1.5-4.3,3.8-4.3c0.8,0,1.3,0.1,2,0.2l0.6-2.2C23.8,5.3,22.8,5.2,22.3,5.2z M96.1,6.9H96V5.3h-2.7v14.4h2.8v-7.9
			c0-3,1.7-4.3,3.9-4.3c0.8,0,1.3,0.1,2,0.2l0.6-2.2c-0.9-0.4-1.9-0.4-2.4-0.4C98.6,5.2,96.9,5.8,96.1,6.9z M151.3,13.5h8.6
			c0-0.6,0-0.7,0-1c0-4.1-2.2-7.4-6.8-7.4c-4,0-7.1,3.2-7.1,7.5c0,4.5,3,7.4,7.2,7.4c2.5,0,4.8-0.9,6.1-2.5l-1.7-1.6
			c-1.1,1.1-2.5,1.7-4.2,1.7c-2.7,0-4.6-2.1-4.6-5.1c0-2.8,1.6-5.2,4.2-5.2c3,0,3.8,2.4,3.9,3.9h-4.8L151.3,13.5z M62.1,11.4
			c-2.2-0.3-3.4-0.7-3.4-2.1c0-1.3,1.3-2,2.8-2c1.3,0,2.9,0.5,3.9,1.2l1.4-1.9c-1.3-1-3.3-1.5-5.2-1.5c-3.3,0-5.7,1.9-5.7,4.4
			c0,2.9,1.9,3.8,5.1,4.3c1.8,0.3,3.4,0.5,3.4,2c0,1.3-1.3,1.9-3,1.9c-1.7,0-3.1-0.4-4.6-1.5l-1.2,2.1c1.1,0.9,3.3,1.7,5.7,1.7
			c3.4,0,5.8-1.9,5.8-4.5C67.2,12.4,64.6,11.7,62.1,11.4z M139.5,11.4c-2.2-0.3-3.4-0.7-3.4-2.1c0-1.3,1.3-2,2.8-2
			c1.3,0,2.9,0.5,3.9,1.2l1.4-1.9c-1.3-1-3.3-1.5-5.2-1.5c-3.3,0-5.7,1.9-5.7,4.4c0,2.9,1.9,3.8,5.1,4.3c1.8,0.3,3.4,0.5,3.4,2
			c0,1.3-1.3,1.9-3,1.9c-1.7,0-3.1-0.4-4.6-1.5l-1.2,2.1c1.1,0.9,3.3,1.7,5.7,1.7c3.4,0,5.8-1.9,5.8-4.5
			C144.6,12.4,142.1,11.7,139.5,11.4z"/>
	</g>
</g>
</svg>
